# xmcd
#
# Track frame offsets:
#	150
#	16921
#	30077
#	47148
#	64642
#	78821
#	95705
#	112247
#	128086
#	147421
#	169319
#
# Disc length: 2578 seconds
# Revision: 0
# Processed by: cddbd v1.5.2PL0 Copyright (c) Steve Scherf et al.
# Submitted via: dBpowerAMP V12.0
#
DISCID=8d0a100b
DTITLE=Johnny Cox - Thin Blue Line
DYEAR=2013
DGENRE=Blues
TTITLE0=Your Love
TTITLE1=High Price To Pay
TTITLE2=Runaway Train
TTITLE3=New Way
TTITLE4=Something For Me
TTITLE5=Thin Blue Line
TTITLE6=My Destination
TTITLE7=I'm Fine
TTITLE8=All These Tears
TTITLE9=Long Day
TTITLE10=Didn't Commit The Crime
EXTD=
EXTT0=
EXTT1=
EXTT2=
EXTT3=
EXTT4=
EXTT5=
EXTT6=
EXTT7=
EXTT8=
EXTT9=
EXTT10=
PLAYORDER=
